<svg width="153" height="143" viewBox="0 0 153 143" fill="none" xmlns="http://www.w3.org/2000/svg">
<path d="M134.86 130.867C133.614 130.277 132.633 129.447 131.755 128.499C130.439 127.077 129.243 125.553 128.065 124.015C127.88 123.773 127.886 123.739 128.23 123.634C129.344 123.295 130.412 122.846 131.434 122.291C132.697 121.605 133.862 120.787 134.778 119.659C135.027 119.352 135.252 119.026 135.495 118.713C135.572 118.613 135.656 118.511 135.759 118.442C135.967 118.3 136.13 118.355 136.213 118.596C136.671 119.925 137.322 121.165 137.967 122.408C138.502 123.439 138.968 124.501 139.356 125.595C139.61 126.308 139.731 127.053 139.684 127.806C139.618 128.861 139.205 129.739 138.279 130.335C137.773 130.662 137.237 130.904 136.653 131.038C136.014 131.184 135.389 131.147 134.86 130.867Z" fill="#FFCC66"/>
<path d="M130.893 112.535C131.474 112.743 131.948 113.19 132.425 113.634C133.87 114.978 135.134 116.477 136.235 118.114C136.495 118.501 136.519 118.7 136.246 119.077C135.381 120.275 134.414 121.375 133.163 122.194C132.01 122.949 130.813 123.61 129.487 124.009C129.12 124.119 128.745 124.186 128.363 124.223C128.033 124.256 127.784 124.144 127.62 123.85C126.309 121.52 125.206 119.13 124.954 116.404C124.733 114.008 126.578 112.239 128.486 112.034C129.33 111.943 130.119 112.058 130.893 112.535Z" fill="#FFDD92"/>
<path d="M136.415 118.954C136.241 119.278 136.035 119.582 135.8 119.866C134.149 121.866 132.116 123.316 129.646 124.136C129.16 124.297 128.665 124.411 128.155 124.447C127.707 124.479 127.201 124.063 127.137 123.617C127.115 123.461 127.176 123.335 127.308 123.257C127.379 123.216 127.465 123.197 127.548 123.18C130.928 122.472 133.512 120.638 135.313 117.696C135.373 117.599 135.428 117.501 135.52 117.43C135.677 117.309 135.85 117.3 135.978 117.445C136.202 117.699 136.41 117.973 136.518 118.3C136.595 118.53 136.519 118.746 136.415 118.954Z" fill="#7F7F7F"/>
<path d="M142.417 125.338C141.548 124.268 141.021 123.097 140.637 121.863C140.063 120.012 139.64 118.121 139.241 116.226C139.178 115.927 139.199 115.9 139.554 115.953C140.705 116.128 141.863 116.183 143.023 116.123C144.459 116.048 145.863 115.813 147.176 115.189C147.533 115.02 147.877 114.822 148.23 114.645C148.343 114.588 148.463 114.533 148.586 114.514C148.834 114.476 148.958 114.597 148.929 114.849C148.769 116.246 148.822 117.645 148.868 119.045C148.907 120.206 148.869 121.364 148.748 122.519C148.669 123.272 148.457 123.996 148.09 124.655C147.576 125.58 146.825 126.193 145.732 126.332C145.135 126.408 144.547 126.397 143.963 126.266C143.322 126.122 142.775 125.819 142.417 125.338Z" fill="#FFCC66"/>
<path d="M146.742 107.087C147.176 107.525 147.411 108.133 147.65 108.739C148.375 110.575 148.869 112.472 149.157 114.424C149.225 114.885 149.16 115.075 148.751 115.298C147.454 116.005 146.108 116.581 144.626 116.781C143.261 116.965 141.896 117.046 140.526 116.834C140.148 116.775 139.781 116.673 139.421 116.543C139.108 116.429 138.932 116.221 138.91 115.886C138.732 113.218 138.767 110.585 139.715 108.017C140.549 105.76 142.975 104.96 144.785 105.597C145.586 105.879 146.249 106.323 146.742 107.087Z" fill="#FFEB97"/>
<path d="M148.957 115.259C148.66 115.477 148.343 115.662 148.009 115.817C145.657 116.91 143.197 117.341 140.615 117.017C140.107 116.953 139.612 116.842 139.136 116.655C138.718 116.491 138.441 115.897 138.575 115.467C138.622 115.317 138.732 115.229 138.884 115.216C138.966 115.208 139.053 115.229 139.134 115.25C142.489 116.068 145.611 115.528 148.505 113.649C148.601 113.587 148.693 113.523 148.806 113.499C149.001 113.457 149.16 113.523 149.213 113.71C149.306 114.036 149.376 114.371 149.332 114.714C149.302 114.954 149.141 115.117 148.957 115.259Z" fill="#7F7F7F"/>
<path d="M127.968 138.941H31.3682V4.84149H127.968V138.941Z" fill="#C4C4C4"/>
<path d="M124.901 138.941H28.3014V4.84149H124.901V138.941Z" fill="#E5E5E5"/>
<path d="M41.3789 137.141H35.3785V3.84138H41.3789V137.141Z" fill="white"/>
<path d="M118.779 137.141H112.779V3.84138H118.779V137.141Z" fill="white"/>
<path d="M56.8588 137.141H50.8588V3.84138H56.8588V137.141Z" fill="white"/>
<path d="M72.3387 137.141H66.3386V3.84138H72.3387V137.141Z" fill="white"/>
<path d="M87.8189 137.141H81.8188V3.84138H87.8189V137.141Z" fill="white"/>
<path d="M103.299 137.141H97.2988V3.84138H103.299V137.141Z" fill="white"/>
<path d="M74.1404 22.8558C74.6135 22.903 75.076 23.0001 75.5148 23.1863C76.1286 23.4474 76.5195 23.8947 76.6991 24.5463C76.8575 25.1213 77.0614 25.6836 77.2395 26.2534C77.4385 26.8884 77.6364 27.5237 77.8237 28.1626C78.0665 28.9881 78.3032 29.8154 78.5328 30.6444C78.7216 31.3267 78.9025 32.0111 79.0772 32.6969C79.2687 33.4493 79.4539 34.2039 79.6331 34.9596C79.7841 35.5939 79.9267 36.231 80.0664 36.8681C80.2921 37.8996 80.5408 38.9252 80.8164 39.9443C81.0009 40.6277 81.166 41.3166 81.354 41.9989C81.5861 42.8417 81.8253 43.6831 82.0761 44.5209C82.3188 45.3316 82.5742 46.1384 82.8346 46.9438C83.1027 47.7749 83.3814 48.6026 83.6587 49.4309C83.8834 50.1015 84.124 50.7665 84.3872 51.4234C84.7019 52.209 85.0282 52.989 85.3728 53.7626C85.7457 54.6012 86.1542 55.4193 86.5959 56.2215C87.1653 57.2555 87.8028 58.2471 88.4568 59.2293C89.312 60.513 90.22 61.7573 91.2339 62.9193C92.3296 64.1745 93.485 65.3768 94.7377 66.4753C95.9816 67.5668 97.3454 68.5052 98.7181 69.4288C100.08 70.3443 101.489 71.1832 102.907 72.0058C103.834 72.5435 104.709 73.1615 105.638 73.6904C106.883 74.3987 108.091 75.165 109.282 75.9591C110.021 76.4526 110.714 77.0149 111.444 77.5222C112.912 78.5407 114.182 79.7828 115.472 81.0063C116.574 82.0512 117.511 83.2393 118.507 84.377C119.374 85.3655 120.015 86.499 120.683 87.6208C121.514 89.0178 122.169 90.5076 122.984 91.9117C123.179 92.2472 123.389 92.5735 123.591 92.9051C123.634 92.976 123.677 93.048 123.71 93.1242C123.976 93.7394 123.924 93.9229 123.387 94.3257C122.387 95.075 121.403 95.8455 120.386 96.5712C119.066 97.5138 117.724 98.4271 116.383 99.3419C115.351 100.046 114.323 100.761 113.262 101.421C112.119 102.133 110.981 102.852 109.845 103.574C108.357 104.521 106.849 105.438 105.31 106.298C103.832 107.125 102.335 107.92 100.821 108.679C99.2321 109.475 97.623 110.234 96.0031 110.965C95.1296 111.359 94.2734 111.793 93.3915 112.165C92.2651 112.64 91.1513 113.143 90.0457 113.662C88.8138 114.24 87.6045 114.865 86.3984 115.497C84.8486 116.309 83.301 117.122 81.7699 117.969C80.3958 118.729 79.0482 119.533 77.6819 120.304C75.9748 121.268 74.3341 122.332 72.7134 123.432C71.322 124.376 69.9984 125.412 68.6621 126.431C67.0841 127.635 65.4765 128.8 63.7373 129.768C63.5063 129.897 63.2777 130.03 63.0205 130.1C62.4811 130.248 62.0316 130.08 61.7311 129.602C60.9853 128.415 60.2995 127.195 59.7333 125.909C59.3922 125.135 59.003 124.381 58.6524 123.611C58.2961 122.828 57.9602 122.035 57.6156 121.246C57.2607 120.433 56.9086 119.619 56.5523 118.807C56.1674 117.931 55.7825 117.055 55.3917 116.182C54.9323 115.157 54.4794 114.128 53.9661 113.128C53.3142 111.857 52.653 110.591 51.9411 109.351C51.4166 108.436 50.8976 107.518 50.3353 106.627C49.6248 105.501 48.9069 104.379 48.1435 103.289C47.3071 102.096 46.4283 100.931 45.6363 99.7091C45.056 98.8127 44.5261 97.8828 44.0093 96.9465C43.3051 95.6698 42.6892 94.3501 42.0807 93.0279C41.6986 92.1971 41.3779 91.3374 41.0396 90.4868C40.6293 89.4553 40.2451 88.4132 39.8204 87.388C39.3159 86.1702 38.7737 84.9683 38.2604 83.7544C37.8932 82.8852 37.558 82.0025 37.1866 81.135C36.826 80.2929 36.4905 79.4413 36.1536 78.5901C35.8732 77.8813 35.5991 77.1691 35.3094 76.4635C34.8131 75.256 34.4116 74.0142 33.9971 72.7781C33.7149 71.9367 33.5067 71.0706 33.2556 70.2183C32.9374 69.1378 32.714 68.0343 32.5221 66.9283C32.375 66.0813 32.247 65.229 32.1425 64.3735C31.9944 63.1596 31.879 61.9428 31.7982 60.724C31.7376 59.8096 31.6769 58.8938 31.6737 57.9755C31.6709 57.0442 31.6275 56.1132 31.6187 55.1822C31.6127 54.5564 31.6515 53.9306 31.643 53.3051C31.6257 52.0238 31.7312 50.7474 31.7728 49.4686C31.8039 48.5094 31.9087 47.553 32.0265 46.5995C32.3136 44.2782 32.6167 41.9587 32.8742 39.6349C33.0753 37.8227 33.2189 36.0045 33.3864 34.1891C33.4947 33.0112 33.6362 31.8347 33.6979 30.6543C33.7618 29.4333 33.8641 28.2127 33.8401 26.9868C33.8281 26.4033 33.8747 25.8184 33.8747 25.2342C33.8747 24.5251 33.8292 23.816 33.8472 23.108C33.8694 22.2568 34.2765 21.9745 34.8833 21.8959C36.3618 21.7047 37.847 21.645 39.3332 21.6002C41.391 21.5381 43.4494 21.4732 45.5075 21.4623C47.3988 21.4521 49.2911 21.4736 51.1813 21.5727C53.8775 21.7145 56.5675 21.9548 59.2599 22.1488C60.8975 22.267 62.5386 22.34 64.1762 22.4525C66.0942 22.5841 68.0148 22.5429 69.9321 22.6349C71.1552 22.6939 72.3793 22.7323 73.6028 22.7856C73.7823 22.793 73.9612 22.8318 74.1404 22.8558Z" fill="white"/>
<path d="M97.502 43.1336C96.9245 42.9939 96.3488 42.845 95.7691 42.7159C95.1652 42.5819 94.5693 42.6069 93.97 42.7932C93.0672 43.0743 92.1588 43.3418 91.2426 43.576C90.4648 43.7753 89.67 43.9097 88.8872 44.0918C87.7032 44.3669 86.5091 44.6015 85.3008 44.7116C84.4746 44.7864 83.6452 44.888 82.8077 44.8396C82.2867 44.8097 81.7621 44.8643 81.2393 44.8523C79.6712 44.816 78.1077 44.6784 76.542 44.5927C75.7243 44.5475 74.9013 44.5952 74.0828 44.5525C72.332 44.4629 70.5879 44.314 68.8607 43.9782C67.7924 43.7707 66.7137 43.6137 65.6454 43.3989C65.5036 43.3703 65.3682 43.3728 65.2292 43.4197C64.8005 43.5644 64.3726 43.7086 63.9475 43.8639C63.1524 44.1542 62.3487 44.4244 61.5208 44.6118C61.4379 44.6308 61.3539 44.6442 61.2696 44.6537C60.5443 44.7356 60.2515 44.4414 60.3707 43.7256C60.5245 42.8031 60.7725 41.9017 61.0318 41.0046C61.246 40.2652 61.2382 39.548 61.048 38.7934C60.6614 37.2602 60.2522 35.7249 60.0783 34.1494C59.9029 32.5644 59.8331 30.9702 59.8652 29.3728C59.88 28.638 59.826 27.901 59.8599 27.1679C59.9911 24.3461 60.3481 21.5553 61.2548 18.8681C61.4985 18.145 61.3782 17.4881 61.2625 16.7913C61.1313 15.9976 60.8639 15.2335 60.7948 14.427C60.7231 13.5927 60.9673 13.3606 61.7868 13.5528C62.6408 13.7539 63.4907 13.9716 64.3426 14.1801C64.6312 14.2506 64.9212 14.317 65.2112 14.3808C65.9802 14.5501 66.7151 14.4397 67.4534 14.1734C68.4747 13.8047 69.5115 13.4858 70.5723 13.2339C71.3425 13.0512 72.1168 12.8917 72.8936 12.7573C73.6281 12.6296 74.3682 12.5093 75.1175 12.467C75.5821 12.4405 76.0429 12.3485 76.5075 12.3114C78.0421 12.1879 79.5795 12.0969 81.1186 12.0881C82.8984 12.0782 84.6789 12.0941 86.4576 12.1506C87.5029 12.1837 88.5506 12.1763 89.5934 12.2564C90.8758 12.3545 92.1673 12.353 93.4405 12.5467C94.6431 12.7291 95.8376 12.9609 97.0039 13.32C97.5842 13.4992 98.1631 13.6908 98.7787 13.7186C98.9642 13.7271 99.1466 13.7194 99.3251 13.6686C99.7728 13.5408 100.232 13.4615 100.672 13.3003C101.111 13.139 101.577 13.0762 102.035 12.9912C102.524 12.9002 103.085 13.1733 102.94 13.9123C102.881 14.2189 102.787 14.5138 102.693 14.8112C102.43 15.648 102.151 16.4795 101.84 17.2997C101.646 17.8109 101.758 18.3139 101.874 18.8011C102.086 19.6936 102.253 20.595 102.46 21.4875C102.671 22.4005 102.816 23.3227 102.855 24.2519C102.907 25.5064 102.906 26.763 102.725 28.0153C102.546 29.2469 102.399 30.4826 102.188 31.71C102.021 32.6872 101.824 33.658 101.584 34.6179C101.144 36.3762 100.771 38.1471 100.437 39.9276C100.32 40.553 100.494 41.0928 100.845 41.604C101.132 42.0224 101.414 42.4492 101.619 42.9131C101.901 43.5492 101.648 43.8656 100.962 43.7863C99.7922 43.6508 98.6453 43.4056 97.502 43.1336Z" fill="#91ACD8"/>
<path d="M77.9049 142.054H29.4579C28.425 142.054 27.3917 142.056 26.3588 142.056C26.2364 142.056 26.114 142.053 25.9923 142.044C25.8642 142.034 25.7975 141.963 25.8018 141.831C25.8039 141.763 25.8003 141.695 25.8003 141.627C25.7993 140.254 25.7972 138.881 25.7975 137.508C25.7975 137.096 25.8437 137.049 26.2597 137.021C26.3814 137.013 26.5041 137.017 26.6265 137.017C47.7502 137.05 68.8742 137.083 89.9981 137.117C102.953 137.138 115.907 137.16 128.862 137.183C129.16 137.184 129.461 137.154 129.756 137.214C130.052 137.274 130.096 137.323 130.098 137.617C130.107 138.963 130.112 140.308 130.115 141.654C130.116 141.98 130.099 141.995 129.776 142.023C129.614 142.037 129.451 142.034 129.287 142.034C114.974 142.037 100.66 142.04 86.3465 142.043C83.5324 142.043 80.7187 142.043 77.9049 142.043V142.054Z" fill="#C4C4C4"/>
<path d="M77.9455 5.04084C60.8178 5.04084 43.6901 5.04119 26.5627 5.04013C25.6346 5.04013 25.8099 5.09375 25.8025 4.28448C25.7909 3.02048 25.7972 1.75612 25.7976 0.49212C25.7976 0.0804286 25.8438 0.0328036 26.2594 0.00528696C26.3811 -0.00317971 26.5042 0.00105359 26.6262 0.00105359C47.7636 0.0342147 68.9014 0.067023 90.0391 0.10089C102.966 0.122056 115.893 0.144282 128.821 0.167918C129.133 0.167918 129.447 0.136873 129.756 0.197904C130.051 0.256465 130.096 0.307618 130.098 0.601129C130.107 1.94662 130.113 3.29282 130.115 4.63832C130.116 4.96464 130.099 4.98122 129.776 5.00732C129.587 5.02249 129.396 5.01826 129.206 5.01861C114.933 5.02108 100.66 5.0239 86.3871 5.02637C83.5734 5.02708 80.7596 5.02637 77.9455 5.02637V5.04084Z" fill="#C4C4C4"/>
<path d="M93.8157 51.2C92.4974 51.1506 91.0754 50.9632 89.6554 50.7184C88.6885 50.5515 87.7561 50.2714 86.8008 50.0707C86.4801 50.003 86.1654 49.8851 85.8663 49.7539C85.3667 49.5352 84.8453 49.3704 84.3176 49.2424C83.5788 49.0628 83.1005 48.594 82.6824 48.0507C82.3117 47.5685 81.9702 47.0654 81.6234 46.5666C81.1045 45.8187 80.5196 45.111 80.0687 44.3215C79.9071 44.0379 79.9181 44.0047 80.2663 43.9179C80.9341 43.7521 81.6103 43.6138 82.2743 43.4353C83.328 43.1524 84.4132 43 85.4715 42.7358C85.7336 42.6701 86.0112 42.655 86.2829 42.6296C86.6053 42.5992 86.9115 42.6529 87.2022 42.7975C87.5843 42.9873 87.9572 43.199 88.3442 43.3736C89.2116 43.7645 90.0347 44.2463 90.9477 44.5441C91.3191 44.6654 91.6726 44.8246 91.9944 45.0232C92.4293 45.2916 92.8343 45.2468 93.2541 45.0337C93.7004 44.8073 94.0976 44.5183 94.4571 44.1821C94.8751 43.792 95.3588 43.4526 95.6516 42.9612C96.0763 42.2493 96.5766 41.5868 97.0973 40.9373C97.5132 40.418 97.8681 39.8599 98.2766 39.3339C98.7924 38.6689 99.2722 37.9729 99.6546 37.2247C99.7414 37.0546 99.874 36.9061 99.9724 36.741C100.288 36.2111 100.553 35.6566 100.905 35.1429C101.102 34.8565 101.355 34.6159 101.544 34.3262C101.677 34.123 101.763 33.9177 101.782 33.6835C101.833 33.0471 101.88 32.4114 101.907 31.7732C101.929 31.2334 102.058 30.6986 102.098 30.1589C102.167 29.2357 102.4 28.3392 102.545 27.4287C102.661 26.6928 102.69 25.9446 102.766 25.2027C102.8 24.8654 102.853 24.5321 102.776 24.1916C102.754 24.0936 102.806 23.9793 102.83 23.8734C102.862 23.7348 102.915 23.6074 103.096 23.5961C103.248 23.5866 103.329 23.6833 103.394 23.7944C103.602 24.1521 103.771 24.525 103.898 24.9159C104.067 25.4384 104.122 25.9809 104.186 26.5161C104.269 27.2185 104.45 27.9046 104.521 28.607C104.559 28.9845 104.608 29.3612 104.641 29.7391C104.739 30.862 104.991 31.9637 105.149 33.0771C105.291 34.0736 105.297 35.0784 104.854 36.0418C104.591 36.6129 104.342 37.1911 104.094 37.7676C103.645 38.81 103.194 39.8525 102.672 40.8618C102.054 42.056 101.485 43.2755 100.753 44.416C100.619 44.6249 100.508 44.8443 100.404 45.0687C100.063 45.801 99.657 46.5013 99.2319 47.1938C98.9589 47.6383 98.7744 48.1308 98.4848 48.5686C98.0844 49.1757 97.7242 49.8058 97.2116 50.3462C96.9181 50.6563 96.5589 50.8295 96.161 50.9484C95.4399 51.1647 94.6906 51.1971 93.8157 51.2Z" fill="#F7AD8D"/>
<path d="M89.8483 41.101C89.45 41.3451 89.0616 41.5691 88.6877 41.8157C88.0922 42.2091 87.4254 42.4655 86.8106 42.824C86.3265 43.1062 85.8083 43.3313 85.2675 43.5136C84.4868 43.7765 83.8694 43.5355 83.3121 43.0272C83.0118 42.7534 82.7677 42.4246 82.5324 42.0902C82.1892 41.6016 81.8082 41.1479 81.309 40.8008C81.0634 40.63 80.8398 40.606 80.5794 40.7468C80.1706 40.9683 79.7148 41.0908 79.3154 41.3335C79.1807 41.4157 79.1024 41.3522 79.0449 41.2262C78.7549 40.5933 78.4744 39.9552 78.1714 39.3272C78.0772 39.1311 77.9752 38.9392 77.8705 38.7497C77.4284 37.9479 77.0584 37.1111 76.6506 36.293C76.3323 35.6555 76.0865 34.9824 75.7005 34.3795C75.6074 34.2342 75.5322 34.098 75.752 33.9869C76.2992 33.7103 76.761 33.3035 77.2739 32.9744C77.6651 32.7236 78.044 32.4533 78.4356 32.2039C79.3553 31.618 80.2468 30.9886 81.188 30.4362C82.5031 29.6636 83.8084 28.8734 85.2368 28.3174C85.6831 28.1435 86.1258 27.9561 86.5791 27.802C87.52 27.4824 88.4975 27.3434 89.4825 27.2435C90.8068 27.1098 92.0168 27.4824 93.1669 28.0853C93.7567 28.3946 94.16 28.9333 94.6133 29.4036C95.1566 29.9666 95.5245 30.6507 95.8117 31.3629C96.0219 31.8836 96.1518 32.4452 96.2449 33.0005C96.2932 33.2884 96.2043 33.6066 96.1422 33.904C95.999 34.5891 95.7669 35.2406 95.4201 35.8573C95.206 36.2379 95.0232 36.6299 94.692 36.9287C94.0887 37.4723 93.549 38.0802 92.9662 38.646C92.0243 39.5601 91.1786 40.5605 90.8492 41.8873C90.7747 42.1875 90.6142 42.2306 90.4018 42.0147C90.332 41.9438 90.2819 41.8513 90.23 41.7642C90.1048 41.5515 89.9838 41.3366 89.8483 41.101Z" fill="#FFD1BD"/>
<path d="M70.3963 33.7726C71.2 33.7278 71.9038 33.9158 72.622 33.95C73.5431 33.9934 74.4653 34.0848 75.3811 33.9321C75.7564 33.8696 76.0041 34.0012 76.2256 34.2675C76.8063 34.9657 77.3602 35.6769 77.8043 36.4784C78.12 37.0478 78.4499 37.6062 78.6838 38.2158C79.0785 39.2445 79.3869 40.2831 79.4031 41.4085C79.4137 42.1045 79.2927 42.7406 79.0553 43.3854C78.5586 44.7345 77.9796 46.0454 77.3556 47.3394C76.8599 48.3656 76.3332 49.3756 75.8072 50.3856C75.1493 51.6475 74.4099 52.8642 73.6098 54.0404C73.2464 54.5745 72.8439 55.0906 72.3105 55.4843C71.9295 55.7655 71.5866 56.1003 71.1957 56.3652C70.7371 56.6756 70.2461 56.9388 69.7666 57.2179C69.0766 57.6193 68.3791 58.0084 67.6948 58.4187C67.3882 58.6025 67.1804 58.8992 66.9525 59.168C66.3729 59.852 65.8483 60.5848 65.4077 61.3574C64.7445 62.5205 64.1052 63.7016 63.569 64.9335C63.2067 65.7667 62.7887 66.5735 62.3033 67.3433C62.0507 67.744 61.8559 68.1776 61.5762 68.5642C61.4605 68.7248 61.3656 68.7159 61.2058 68.6584C59.916 68.1967 58.6153 67.7656 57.3203 67.3214C56.5392 67.0537 55.7448 66.8173 54.9747 66.522C53.8359 66.0856 52.6714 65.724 51.5266 65.3071C50.5205 64.9409 49.5151 64.5743 48.5153 64.1923C47.8069 63.9224 47.113 63.6144 46.4036 63.3467C45.7308 63.0927 45.0768 62.7977 44.4227 62.5021C44.0156 62.3183 43.6219 62.1045 43.2219 61.9049C43.0599 61.8241 43.0712 61.7228 43.1481 61.5743C43.4723 60.9467 43.8699 60.3664 44.2611 59.7815C44.6527 59.1962 45.0387 58.6078 45.4232 58.0187C46.1037 56.9751 46.7891 55.9355 47.458 54.8849C48.25 53.6396 49.0914 52.4282 49.9006 51.1949C50.4284 50.3905 50.9897 49.6106 51.5238 48.8115C52.1485 47.8767 52.8248 46.9795 53.4545 46.0486C53.789 45.5543 54.176 45.1006 54.545 44.6329C55.0322 44.0159 55.532 43.4094 56.0351 42.8058C56.5978 42.1306 57.1672 41.4586 57.7761 40.8253C58.4781 40.0951 59.233 39.4188 60.0409 38.8018C60.7517 38.2582 61.4756 37.735 62.2348 37.2619C63.0279 36.767 63.828 36.2861 64.6552 35.848C65.1445 35.5887 65.6282 35.3149 66.1196 35.0588C67.2898 34.4482 68.51 33.9677 69.8262 33.7772C70.0386 33.7465 70.2595 33.7726 70.3963 33.7726Z" fill="#FFCC66"/>
<path d="M70.4632 16.8551C70.3743 15.9125 70.8752 15.3092 71.4675 14.7345C71.8464 14.3666 72.2553 14.0844 72.7904 14.0551C73.5239 14.0159 74.2506 14.0293 74.8792 14.5049C75.1212 14.6883 75.3858 14.8428 75.6289 15.0256C76.1302 15.4038 76.4272 15.9492 76.7444 16.4677C77.2996 17.3783 77.6951 18.3696 78.0384 19.3729C78.2825 20.0865 78.5234 20.8027 78.7626 21.5192C78.7721 21.5467 78.7792 21.5753 78.7919 21.6014C79.0371 22.1122 79.2625 22.6339 79.5331 23.1314C79.9793 23.9505 80.657 24.5707 81.3633 25.1605C81.5111 25.284 81.6864 25.357 81.8547 25.4435C82.9448 26.0019 84.0807 26.3692 85.3271 26.3141C85.6301 26.3011 85.9388 26.3843 86.2404 26.3614C87.3609 26.2764 88.4834 26.3268 89.6045 26.2908C90.508 26.2619 91.4104 26.3152 92.2885 26.5544C93.2018 26.8031 93.9335 27.3463 94.5586 28.036C94.7233 28.2181 94.8708 28.4191 95.0511 28.5867C95.9284 29.4016 96.3976 30.424 96.6354 31.5814C96.8164 32.4606 96.865 33.3492 96.8051 34.2336C96.7462 35.1039 96.5634 35.9555 96.0276 36.6953C95.6949 37.1543 95.2532 37.4143 94.7202 37.4746C93.956 37.5614 93.2706 37.33 92.6349 36.8784C91.7988 36.2843 91.0954 35.5467 90.3337 34.8722C89.8233 34.4202 89.1964 34.1772 88.5413 34.0163C88.2887 33.9542 88.029 33.9052 87.763 33.9253C87.6124 33.9366 87.4649 33.9186 87.3986 33.7514C87.3249 33.5665 87.3573 33.4117 87.5327 33.2952C87.5792 33.2645 87.6046 33.2039 87.6487 33.1672C87.9133 32.9467 87.9161 32.6906 87.7983 32.3865C87.6741 32.0658 87.4265 31.9497 87.1241 31.9155C86.765 31.875 86.4334 31.9998 86.1103 32.1353C85.4791 32.4009 85.0611 32.9001 84.7052 33.4593C84.6536 33.5404 84.6424 33.6515 84.6272 33.7514C84.5658 34.1546 84.3926 34.4573 84.0486 34.7226C83.1042 35.4514 82.0586 35.9876 80.9516 36.3866C79.9416 36.7511 78.8981 37.0103 77.8281 37.1829C76.665 37.3705 75.5019 37.3815 74.3416 37.3201C73.2074 37.2605 72.1036 36.9864 71.0258 36.6036C70.3796 36.3743 69.764 36.0815 69.1311 35.8257C68.736 35.6659 68.4061 35.3939 68.0484 35.1738C66.8712 34.4485 65.7522 33.6445 64.7538 32.6733C64.0112 31.9501 63.3533 31.1609 62.702 30.358C62.1327 29.6563 61.6088 28.9226 61.1198 28.1669C60.5356 27.2663 60.0139 26.3289 59.6092 25.3256C59.2656 24.473 58.9125 23.6238 58.7647 22.7154C58.5961 21.6793 58.4959 20.633 58.7897 19.5976C59.0145 18.8067 59.3817 18.0909 60.1102 17.6591C61.2737 16.9697 62.5489 16.6177 63.8366 17.4954C64.1879 17.7349 64.5083 18.0447 64.7654 18.3992C64.8483 18.5131 64.8956 18.6578 65.0907 18.7163C65.0907 18.5191 65.1126 18.3361 65.0872 18.1604C64.9831 17.4435 65.1563 16.7708 65.423 16.122C65.6918 15.4673 66.1564 14.9653 66.8003 14.6672C67.5912 14.301 68.5769 14.5613 69.2073 15.1932C69.6154 15.6013 69.9347 16.0546 70.1943 16.5612C70.2448 16.6593 70.2857 16.7743 70.4632 16.8551Z" fill="black"/>
<path d="M104.216 45.8266C104.39 45.8813 104.468 45.7896 104.56 45.7419C105.765 45.1189 106.965 44.4857 108.177 43.8775C108.612 43.6588 109.074 43.494 109.529 43.317C109.703 43.2489 109.941 43.1543 110.057 43.3279C110.181 43.5134 109.938 43.6182 109.823 43.7399C109.387 44.2049 108.807 44.4582 108.271 44.7704C107.849 45.0166 107.443 45.2883 107.029 45.5454C106.816 45.6781 106.65 45.8869 106.413 46.1081C107.002 46.0446 107.452 45.7952 107.913 45.5888C108.604 45.2795 109.284 44.9436 109.997 44.6829C110.331 44.5605 110.684 44.5337 111.035 44.5019C111.1 44.4963 111.172 44.5065 111.235 44.5273C111.418 44.5901 111.453 44.7267 111.31 44.8628C111.133 45.0315 110.938 45.1779 110.725 45.301C110.138 45.6396 109.556 45.9818 108.947 46.282C108.487 46.5089 108.034 46.7551 107.623 47.0687C107.57 47.1097 107.501 47.1322 107.497 47.2187C107.666 47.2892 107.814 47.1961 107.956 47.1354C108.629 46.8476 109.311 46.5837 109.971 46.2665C110.435 46.0439 110.92 45.8647 111.429 45.7642C111.455 45.7589 111.48 45.7465 111.507 45.7416C111.689 45.7074 111.883 45.7056 111.964 45.8947C112.037 46.0647 111.916 46.2062 111.78 46.3096C111.283 46.6884 110.72 46.9594 110.173 47.2564C109.449 47.6491 108.644 47.8865 107.987 48.4075C107.886 48.488 107.769 48.5486 107.674 48.7148C108.4 48.4672 109.054 48.1789 109.724 47.9338C110.295 47.7246 110.834 47.4212 111.443 47.3185C111.496 47.3093 111.547 47.2836 111.601 47.2786C111.743 47.2667 111.883 47.2959 111.953 47.4289C112.031 47.5785 111.924 47.7048 111.822 47.7821C111.499 48.0279 111.156 48.2396 110.788 48.4185C109.923 48.8372 109.055 49.2584 108.302 49.8687C107.797 50.2769 107.313 50.7122 106.794 51.1013C106.294 51.4771 105.72 51.7321 105.143 51.9695C104.768 52.124 104.38 52.2493 103.996 52.3805C103.336 52.6059 102.837 53.0741 102.309 53.4946C101.684 53.9917 101.056 54.4852 100.454 55.008C99.8808 55.5058 99.3011 55.9947 98.7088 56.4689C97.8431 57.161 97.0169 57.9022 96.1258 58.5637C95.2015 59.2502 94.3199 59.9935 93.3519 60.6214C92.4985 61.1749 91.6236 61.6871 90.6743 62.0622C90.4577 62.1479 90.264 62.2742 90.0802 62.4128C89.744 62.6661 89.3955 62.683 89.0064 62.5342C88.6077 62.3818 88.2916 62.0967 87.9156 61.9122C87.3141 61.6166 86.8093 61.1784 86.3256 60.7346C85.7337 60.1917 85.0835 59.7335 84.4414 59.2614C83.7673 58.7654 83.0787 58.2895 82.3717 57.8405C82.1092 57.6732 81.857 57.4856 81.6203 57.2838C81.1856 56.9123 80.6963 56.6188 80.237 56.2822C79.5939 55.8109 78.9208 55.3802 78.265 54.9251C77.9651 54.7166 77.6617 54.5085 77.3859 54.27C76.8532 53.8079 76.2644 53.4187 75.7236 52.969C75.2357 52.5629 74.7718 52.124 74.3234 51.6739C74.1114 51.4612 73.8669 51.2918 73.6426 51.0999C73.0629 50.6043 72.6004 50.0014 72.0646 49.4669C71.51 48.9138 71.063 48.2671 70.664 47.5894C70.4788 47.2755 70.2693 46.9735 70.0477 46.6842C69.5729 46.0644 69.2339 45.3765 68.9626 44.6494C68.8726 44.4084 68.7626 44.1749 68.6634 43.9375C68.3237 43.1243 68.3396 42.2681 68.3625 41.4116C68.3643 41.3453 68.3805 41.2772 68.4017 41.2137C68.8102 39.9828 69.5962 39.109 70.8302 38.667C71.6158 38.3855 72.3785 38.5389 73.1384 38.7954C74.1777 39.1461 74.9856 39.8379 75.7984 40.5346C76.6327 41.249 77.2635 42.1249 77.8815 43.0164C78.198 43.4729 78.5448 43.9089 78.845 44.3756C79.1159 44.7965 79.3844 45.2191 79.6366 45.653C79.9361 46.1681 80.2854 46.6535 80.6276 47.1428C81.0721 47.7792 81.6157 48.3271 82.171 48.8556C83.3566 49.9845 84.5797 51.0749 85.7898 52.1791C86.3193 52.6624 86.8424 53.1535 87.3896 53.6163C87.9054 54.0534 88.449 54.4577 88.9796 54.8775C89.1263 54.9935 89.2844 55.0151 89.4724 55.0062C90.1645 54.9738 90.7805 54.676 91.4282 54.4859C92.1821 54.2647 92.931 54.0269 93.6648 53.7511C94.3485 53.4935 95.0195 53.1972 95.6612 52.8395C96.5015 52.371 97.3175 51.863 98.1373 51.361C99.039 50.8092 99.9167 50.2215 100.666 49.463C100.821 49.3054 100.937 49.1268 101.011 48.918C101.187 48.4209 101.365 47.9154 101.599 47.4515C102.042 46.5717 102.558 45.7317 103.448 45.1877C104.212 44.7207 104.979 44.2617 105.784 43.8698C105.893 43.8168 106.01 43.7703 106.129 43.7505C106.3 43.7216 106.389 43.8401 106.32 43.9968C106.282 44.0825 106.233 44.1735 106.163 44.2317C105.674 44.6363 105.185 45.0427 104.68 45.4273C104.52 45.5486 104.402 45.6986 104.216 45.8266Z" fill="#FFC6A9"/>
<path d="M67.9951 42.4604C68.0222 41.2046 68.4022 40.0859 69.2898 39.1694C70.455 37.9653 72.1405 37.6909 73.6257 38.4762C74.5299 38.9542 75.3477 39.562 76.1273 40.2231C77.5349 41.4166 78.7244 42.809 79.8579 44.2561C80.8214 45.4862 81.7925 46.7111 82.8389 47.8735C83.1899 48.2633 83.1846 48.4047 82.8622 48.8214C82.6106 49.1466 82.315 49.4243 82.0021 49.6874C80.8058 50.6929 79.6124 51.7015 78.4147 52.7058C77.7582 53.2565 77.1249 53.8319 76.5023 54.42C76.4039 54.5134 76.3012 54.6023 76.2021 54.6955C75.8652 55.0116 75.5671 55.0063 75.2136 54.6785C74.3211 53.852 73.534 52.9383 72.8271 51.954C72.0584 50.8837 71.2981 49.8063 70.5523 48.7198C69.6108 47.3475 68.8209 45.894 68.3133 44.3009C68.1231 43.7036 67.9824 43.0954 67.9951 42.4604Z" fill="#FFEB97"/>
<path d="M92.4214 116.407C92.3862 116.427 92.371 116.431 92.3664 116.44C91.9819 117.127 91.6213 116.926 91.1892 116.558C90.9899 116.388 90.8431 116.169 90.7249 115.932C90.654 115.791 90.6015 115.703 90.4074 115.813C90.2222 115.917 90.0095 115.858 89.8405 115.697C89.6779 115.541 89.5294 115.37 89.4631 115.156C89.1812 114.243 88.7342 113.382 88.5568 112.439C88.3567 111.375 87.8844 110.439 87.4102 109.492C86.976 108.624 86.4528 107.814 85.9511 106.991C85.749 106.659 85.4904 106.365 85.2096 106.09C84.7104 105.601 84.2486 105.072 83.7466 104.586C83.3522 104.205 83.0047 103.79 82.7007 103.334C82.3948 102.876 82.1531 102.394 82.0921 101.822C82.0357 101.294 82.1105 100.815 82.3493 100.339C82.689 99.661 83.1663 99.1234 83.8123 98.7614C84.195 98.5476 84.575 98.3324 84.9436 98.0947C85.2802 97.877 85.4502 97.5877 85.4943 97.164C85.5839 96.3089 85.5518 95.4619 85.4957 94.6082C85.4566 94.0056 85.4767 93.4006 85.3359 92.8072C85.2911 92.6167 85.4216 92.5596 85.5871 92.5487C86.0612 92.5176 86.5346 92.4809 87.0084 92.4449C88.198 92.3546 89.3886 92.2805 90.5687 92.0872C90.793 92.0505 91.0629 91.9549 91.247 92.0922C91.4294 92.2294 91.3105 92.5113 91.3352 92.7272C91.4375 93.6264 91.5286 94.527 91.6157 95.4277C91.6411 95.6887 91.6496 95.953 91.6489 96.2154C91.646 97.037 91.8732 97.8248 91.9738 98.6312C92.0602 99.3209 92.1597 100.008 92.2108 100.702C92.2539 101.29 92.3403 101.875 92.3735 102.465C92.4105 103.121 92.4546 103.775 92.5125 104.429C92.6112 105.545 92.5622 106.663 92.5936 107.779C92.6243 108.868 92.661 109.96 92.8099 111.038C92.9065 111.739 93.0995 112.425 93.2223 113.122C93.3665 113.944 93.6533 114.711 93.9977 115.462C94.1218 115.735 94.2287 116.018 94.2104 116.334C94.1804 116.853 93.8908 117.066 93.4022 116.906C93.0469 116.79 92.7075 116.636 92.4214 116.407Z" fill="#FFC6A9"/>
<path d="M81.4888 74.5653C80.9335 74.6259 80.47 74.8623 79.9962 75.0546C78.7329 75.5665 77.502 76.1528 76.2793 76.7606C75.5053 77.1451 74.7416 77.5491 73.97 77.9378C73.7622 78.0419 73.6116 78.0341 73.4109 77.8955C72.838 77.4993 72.2358 77.149 71.6339 76.7994C71.2663 76.586 70.9132 76.3475 70.5428 76.1351C69.724 75.6673 68.8988 75.2116 68.0628 74.7805C67.5258 74.5035 66.9586 74.2862 66.4206 74.0058C65.6773 73.6184 64.91 73.2812 64.1293 72.9827C63.4587 72.7259 62.8205 72.3819 62.1103 72.2264C61.7477 72.1473 61.4041 71.9858 61.0682 71.8185C60.9148 71.742 60.8605 71.6347 60.9321 71.4682C61.1518 70.9595 61.2552 70.4162 61.3498 69.8758C61.4291 69.4256 61.4732 68.9702 61.5844 68.5236C61.6235 68.3663 61.681 68.2929 61.8288 68.2823C62.2709 68.252 62.6811 68.0929 63.0904 67.9408C64.2231 67.5192 65.3414 67.0543 66.488 66.6768C67.2669 66.42 68.0388 66.1261 68.8498 65.9695C69.2019 65.9014 69.542 65.7712 69.8909 65.6837C71.1496 65.3673 72.4192 65.0967 73.6942 64.8593C74.4904 64.7111 75.2739 64.5062 76.0669 64.3502C76.9503 64.177 77.8082 63.874 78.6944 63.7473C79.6596 63.609 80.6153 63.4154 81.5837 63.2901C82.9662 63.1113 84.3498 63.0541 85.7366 63.1035C86.6827 63.1367 87.6328 63.1871 88.5567 63.4521C89.2181 63.6415 89.845 63.9135 90.4042 64.3121C90.8829 64.6529 91.224 65.1274 91.4375 65.6954C91.6523 66.2672 91.6837 66.8719 91.7835 67.4649C91.8855 68.072 91.9631 68.6848 92.0968 69.2849C92.2407 69.9284 92.252 70.5859 92.3473 71.2343C92.5177 72.389 92.5537 73.5588 92.6725 74.7194C92.7985 75.9478 92.7985 77.1822 92.898 78.4113C92.9869 79.5112 93.0183 80.6129 93.0595 81.715C93.1029 82.8809 93.195 84.0462 93.2864 85.21C93.3926 86.5558 93.534 87.8989 93.6356 89.2451C93.6945 90.0303 93.709 90.8188 93.7372 91.6065C93.7482 91.9195 93.7404 91.9188 93.4314 91.9823C92.4108 92.1915 91.381 92.3364 90.3453 92.4402C88.7341 92.6017 87.1233 92.7665 85.5115 92.9238C85.2688 92.9471 85.0229 92.9319 84.7791 92.9492C84.6204 92.9605 84.5537 92.9097 84.5251 92.7411C84.3886 91.9262 84.1963 91.1236 84.0171 90.3171C83.6869 88.833 83.4114 87.3355 83.0636 85.8559C82.7605 84.5679 82.4868 83.2725 82.1823 81.9842C81.9869 81.1583 81.9171 80.3021 81.7742 79.4622C81.6193 78.5559 81.5385 77.6408 81.4807 76.7253C81.4362 76.0201 81.4535 75.3103 81.4888 74.5653Z" fill="#729BED"/>
<path d="M84.3259 65.4713C82.4153 65.5401 80.5455 65.9052 78.6744 66.2728C74.7134 67.051 70.8547 68.2201 67.0024 69.4171C65.7839 69.7953 64.5523 70.1262 63.3264 70.4768C63.215 70.5089 63.101 70.5407 62.9867 70.5481C62.8015 70.5597 62.6473 70.4384 62.6145 70.2704C62.5803 70.0941 62.6481 69.9593 62.7987 69.8736C62.865 69.8358 62.9398 69.8097 63.0139 69.79C66.1892 68.9479 69.3032 67.8881 72.4655 66.9991C75.4327 66.1652 78.4359 65.4998 81.4733 65.0031C82.8732 64.7738 84.2857 64.6676 85.7053 64.7481C86.7188 64.8056 87.6886 65.0391 88.5934 65.5259C89.5107 66.0191 90.1443 66.7589 90.5097 67.7537C90.8251 68.611 90.9475 69.5095 91.1021 70.4027C91.4929 72.657 91.815 74.9218 92.0034 77.2036C92.1579 79.0775 92.3272 80.9519 92.3541 82.835C92.3802 84.6772 92.5417 86.513 92.6268 88.3524C92.6567 88.9969 92.6913 89.6404 92.7224 90.2842C92.7262 90.3633 92.7305 90.4437 92.7185 90.5206C92.6881 90.7114 92.5516 90.8409 92.3858 90.8497C92.2193 90.8593 92.074 90.7478 92.0274 90.5559C91.9995 90.4419 91.9882 90.322 91.9819 90.2042C91.869 88.0497 91.7371 85.896 91.6542 83.7402C91.6051 82.4653 91.5755 81.1889 91.4848 79.9161C91.3751 78.3815 91.2492 76.8473 91.0802 75.3176C90.86 73.3304 90.5207 71.3616 90.1898 69.3917C90.1093 68.9108 89.9767 68.4448 89.813 67.9862C89.5202 67.1667 88.985 66.5755 88.2347 66.1743C87.3242 65.6879 86.3424 65.5111 85.3299 65.4734C84.9955 65.4607 84.6607 65.4713 84.3259 65.4713Z" fill="#D7E4FF"/>
<path d="M89.9586 90.5426C89.9526 90.5895 89.954 90.6841 89.9276 90.7701C89.868 90.9638 89.6948 91.0792 89.5166 91.0587C89.3293 91.0372 89.2203 90.9028 89.2079 90.6724C89.1303 89.2409 88.9077 87.8248 88.7581 86.4013C88.5712 84.6233 88.356 82.8478 88.2519 81.0621C88.1701 79.6573 88.0184 78.2585 87.9034 76.8566C87.8264 75.926 87.7693 74.9946 87.558 74.082C87.419 73.4798 87.2609 72.8843 87.0038 72.3209C86.7907 71.8528 86.5215 71.4238 86.1973 71.028C85.4283 70.0886 84.4338 69.6578 83.2516 69.6264C82.2049 69.5985 81.1731 69.7206 80.1454 69.9132C77.0861 70.4886 74.1376 71.4492 71.2346 72.5707C70.6571 72.7933 70.0726 72.9958 69.4912 73.2078C69.4552 73.2209 69.4203 73.2403 69.3836 73.2498C69.143 73.3136 68.9691 73.2473 68.8911 73.0632C68.8082 72.8681 68.896 72.6811 69.1331 72.5576C69.2015 72.5217 69.2746 72.4945 69.3472 72.4687C71.5666 71.6722 73.7556 70.7867 76.026 70.1404C77.7998 69.6352 79.5849 69.1914 81.4144 68.9653C82.3482 68.8499 83.2844 68.8048 84.2196 68.9907C85.0261 69.1509 85.7214 69.5178 86.3204 70.0882C87.1519 70.8802 87.6832 71.857 88.0219 72.9549C88.3764 74.1042 88.5225 75.2896 88.6163 76.4844C88.7063 77.6246 88.8142 78.7634 88.8985 79.9039C89.0023 81.3065 89.0986 82.7102 89.2517 84.109C89.3917 85.3896 89.5127 86.6716 89.6828 87.9486C89.7949 88.7953 89.8648 89.648 89.9586 90.5426Z" fill="#D7E4FF"/>
<path d="M80.6792 72.3959C81.5198 72.4933 82.2631 72.8111 82.7535 73.6038C83.2262 74.3686 83.4315 75.2266 83.5229 76.104C83.682 77.6354 83.9184 79.1519 84.1815 80.6671C84.5594 82.8417 84.8497 85.0303 85.1609 87.2161C85.3277 88.3877 85.5888 89.5409 85.8174 90.7001C85.8456 90.8416 85.8777 90.9838 85.8904 91.1273C85.9116 91.3686 85.798 91.5383 85.6068 91.5754C85.4194 91.6121 85.2409 91.496 85.1848 91.2596C85.0889 90.8508 85.0233 90.4345 84.9315 90.0246C84.5509 88.3309 84.3371 86.6086 84.0905 84.8924C83.7991 82.8632 83.4845 80.8386 83.1207 78.8214C82.9828 78.0587 82.9197 77.284 82.8399 76.5128C82.7736 75.8704 82.6628 75.2354 82.4395 74.6293C82.2257 74.0497 81.9209 73.5484 81.3103 73.3071C80.9081 73.1484 80.5102 73.1346 80.0992 73.2288C79.3513 73.401 78.6719 73.7488 77.9952 74.0991C76.7333 74.7528 75.4693 75.4019 74.2484 76.1353C73.8723 76.3611 73.4758 76.5523 73.0853 76.7527C72.983 76.8049 72.8697 76.8529 72.7582 76.8635C72.5917 76.8797 72.4584 76.8021 72.3963 76.631C72.3395 76.4761 72.3836 76.3435 72.4979 76.2391C72.5536 76.1872 72.6256 76.1509 72.6951 76.1181C73.2691 75.8507 73.8183 75.5349 74.3651 75.2146C75.7269 74.4163 77.1274 73.6941 78.5438 73.0048C79.092 72.7381 79.6596 72.5307 80.2639 72.4425C80.3909 72.4238 80.519 72.4135 80.6792 72.3959Z" fill="#D7E4FF"/>
<path d="M60.8926 128.121C60.7631 128.166 60.772 128.315 60.6855 128.395C60.5102 128.557 60.343 128.563 60.1842 128.383C60.1158 128.305 60.065 128.211 60.0004 128.13C59.9352 128.048 59.944 127.924 59.8516 127.858C59.781 127.858 59.7909 127.924 59.7687 127.962C59.5545 128.327 59.195 128.367 58.9202 128.042C58.7784 127.874 58.6634 127.682 58.5364 127.501C58.5082 127.514 58.4831 127.518 58.4676 127.533C58.1018 127.879 57.9688 127.879 57.6428 127.52C57.5733 127.444 57.495 127.361 57.4615 127.267C57.3077 126.832 57.023 126.503 56.6907 126.205C56.195 125.761 55.7971 125.227 55.4087 124.689C55.1078 124.271 54.9737 123.769 54.8125 123.285C54.7384 123.062 54.6767 122.831 54.6428 122.598C54.5313 121.835 54.2449 121.131 53.9404 120.437C53.7256 119.948 53.4127 119.509 53.1022 119.074C52.627 118.408 52.1529 117.741 51.683 117.07C51.4516 116.74 51.2205 116.409 51.0095 116.065C50.6183 115.428 50.3276 114.738 50.1844 114.002C50.0867 113.497 50.1248 112.982 50.365 112.504C50.4613 112.313 50.5862 112.154 50.7502 112.019C51.3027 111.565 51.9091 111.21 52.5512 110.903C53.0154 110.682 53.4613 110.417 53.8991 110.144C54.3038 109.892 54.6901 109.608 55.0795 109.33C55.7431 108.858 56.3538 108.321 56.945 107.757C57.3941 107.328 57.8672 106.925 58.3025 106.479C58.6193 106.156 58.9241 105.822 59.2053 105.466C59.2455 105.415 59.2815 105.36 59.3263 105.313C59.5136 105.116 59.5446 105.114 59.7531 105.302C60.3208 105.815 60.8824 106.333 61.4553 106.84C62.0458 107.361 62.6117 107.909 63.1663 108.469C63.367 108.671 63.5949 108.845 63.8094 109.033C64.0496 109.244 64.0461 109.242 63.8542 109.483C63.4404 110.003 62.9945 110.493 62.5669 111C61.9569 111.723 61.3463 112.452 60.8852 113.289C60.2498 114.442 59.859 115.665 59.9637 117.01C60.0103 117.611 60.0953 118.209 60.1465 118.81C60.1934 119.358 60.2139 119.91 60.2523 120.459C60.3232 121.482 60.4929 122.49 60.6774 123.497C60.7995 124.166 60.8714 124.846 61.0983 125.493C61.2196 125.837 61.3096 126.193 61.4578 126.529C61.6109 126.878 61.7103 127.245 61.7746 127.621C61.8155 127.864 61.7721 128.097 61.6768 128.313C61.5329 128.641 61.2535 128.661 61.0588 128.372C61.0027 128.289 60.9914 128.175 60.8926 128.121Z" fill="#FFD1BD"/>
<path d="M64.6964 111.133C64.1482 110.646 63.6222 110.185 63.1025 109.715C62.5938 109.256 62.0873 108.794 61.5874 108.325C61.1252 107.891 60.6754 107.442 60.2161 107.005C59.7183 106.531 59.2139 106.064 58.7168 105.589C58.5006 105.383 58.2914 105.169 58.085 104.952C57.8765 104.732 57.874 104.696 58.0751 104.467C58.4953 103.989 58.9197 103.515 59.3451 103.043C59.9974 102.318 60.6825 101.622 61.297 100.866C61.9599 100.051 62.5829 99.1995 63.1131 98.2819C63.3153 97.9323 63.5615 97.6088 63.7891 97.2744C64.1912 96.6821 64.5899 96.0873 64.9991 95.5003C65.7057 94.486 66.4366 93.4908 67.2547 92.5648C68.2792 91.4059 69.3601 90.3123 70.5638 89.3439C71.1275 88.8903 71.7071 88.4599 72.2839 88.0249C72.3644 87.9642 72.4653 87.9233 72.5288 87.7794C72.092 87.7212 71.6842 87.5543 71.2503 87.5726C70.2583 87.6146 69.2712 87.507 68.2849 87.4516C66.8822 87.3726 65.4824 87.3716 64.0829 87.4255C62.851 87.4728 61.6219 87.5885 60.3869 87.5716C59.0632 87.5532 57.7446 87.4749 56.4266 87.3458C55.5065 87.2555 54.5897 87.1465 53.6756 87.0121C53.0787 86.9246 52.4913 86.7694 51.8944 86.6843C51.0682 86.5665 50.2473 86.4392 49.4324 86.2458C48.1638 85.9446 46.9556 85.475 45.742 85.0076C44.8459 84.6633 44.0236 84.1846 43.2288 83.6596C42.4054 83.1156 41.6946 82.4387 41.1785 81.5659C40.9664 81.2078 40.746 80.8519 40.5209 80.5044C40.0139 79.7233 39.8298 78.8449 39.6689 77.952C39.5592 77.3442 39.5218 76.7279 39.5186 76.1102C39.5134 75.2155 39.482 74.3195 39.5201 73.4266C39.561 72.4543 39.779 71.5054 39.9907 70.5568C40.2679 69.3125 40.6606 68.1109 41.1241 66.9263C41.6484 65.5868 42.1726 64.2501 42.8203 62.9646C43.1135 62.3832 43.3869 61.7909 43.6867 61.2127C43.7227 61.1432 43.7661 61.0769 43.8098 61.0124C44.0077 60.7199 44.0476 60.7037 44.3782 60.8152C44.4999 60.8561 44.6216 60.9041 44.7334 60.9672C45.4224 61.3553 46.1756 61.5916 46.8935 61.9119C47.6682 62.257 48.4669 62.5483 49.262 62.8433C50.3475 63.2461 51.4076 63.7093 52.4666 64.1789C53.3962 64.5909 54.3388 64.9748 55.2913 65.3265C56.2209 65.6697 57.1258 66.0737 58.0504 66.4278C59.1546 66.8512 60.2606 67.271 61.3838 67.6403C61.4321 67.6562 61.4836 67.6636 61.5337 67.6735C61.974 67.7585 61.9641 67.755 61.8375 68.1688C61.6308 68.8468 61.5094 69.5464 61.3965 70.2449C61.3355 70.6224 61.2314 70.9861 61.1538 71.3579C61.1161 71.5389 61.1206 71.6355 61.3461 71.729C62.5459 72.2272 63.7774 72.6487 64.9345 73.2562C65.493 73.5494 66.0885 73.7674 66.66 74.0355C67.0103 74.1995 67.3454 74.395 67.689 74.5731C68.8916 75.1958 70.1034 75.7997 71.2933 76.446C71.7678 76.7039 72.2261 77.0017 72.6935 77.274C73.1486 77.5396 73.6019 77.8109 74.0545 78.0801C74.8529 78.5546 75.6487 79.0347 76.4375 79.5272C77.1809 79.9911 77.8652 80.5495 78.6629 80.9291C79.0061 81.0928 79.3 81.3655 79.6182 81.586C80.1061 81.9243 80.5707 82.293 81.0237 82.6793C81.5306 83.1111 81.9412 83.6293 82.3469 84.1549C82.7773 84.7127 83.158 85.3015 83.4469 85.9488C83.7824 86.6988 83.9993 87.4813 83.933 88.3124C83.8445 89.424 83.7633 90.5455 83.226 91.553C82.9996 91.9781 82.7431 92.3912 82.4641 92.7821C82.0037 93.4277 81.5105 94.0489 81.0367 94.6846C80.7259 95.1016 80.3823 95.489 80.0486 95.8862C79.6725 96.3339 79.2696 96.7547 78.8858 97.1936C78.6202 97.4977 78.3027 97.7432 78.0339 98.0441C77.7142 98.4008 77.3724 98.7405 77.026 99.07C76.5854 99.4888 76.1507 99.9132 75.7207 100.343C75.4184 100.645 75.1125 100.944 74.8215 101.257C74.6006 101.495 74.3569 101.711 74.1187 101.923C73.6259 102.36 73.1592 102.827 72.6886 103.285C72.0952 103.863 71.4955 104.436 70.9067 105.02C70.2699 105.651 69.6272 106.275 68.9682 106.882C68.3215 107.479 67.7059 108.112 67.0889 108.741C66.3086 109.538 65.536 110.341 64.6964 111.133Z" fill="#92B1FF"/>
<path d="M65.0123 84.9616C62.7263 84.9679 60.9659 85.0882 59.2045 85.1545C57.4265 85.2209 55.6535 85.1835 53.8825 85.0117C52.2156 84.8497 50.5593 84.6197 48.9412 84.1639C47.4718 83.7498 46.0565 83.2023 44.7607 82.3619C44.2369 82.0222 43.7479 81.6412 43.2978 81.2045C42.2095 80.1476 41.6097 78.8402 41.3691 77.3402C41.0696 75.4729 41.1973 73.6183 41.4711 71.761C41.8694 69.052 42.6899 66.4665 43.6093 63.9078C43.6269 63.8588 43.6449 63.8083 43.67 63.7631C43.7765 63.5723 43.9455 63.4989 44.1204 63.5645C44.2771 63.6227 44.3706 63.7818 44.3339 63.9801C44.3028 64.147 44.2443 64.3092 44.1899 64.4705C43.8111 65.5891 43.4011 66.6965 43.0783 67.8342C42.4959 69.887 42.0987 71.9755 41.9438 74.108C41.8577 75.2955 41.9301 76.4769 42.1682 77.6425C42.4381 78.9622 43.0819 80.0615 44.0901 80.9353C45.1043 81.8144 46.2629 82.4307 47.5004 82.9052C49.0505 83.4993 50.656 83.8588 52.2936 84.0764C54.0434 84.3093 55.8006 84.4532 57.5666 84.4398C58.7501 84.431 59.9334 84.389 61.1159 84.3252C62.9803 84.2246 64.8461 84.1844 66.7127 84.2542C68.388 84.3174 70.0507 84.48 71.6696 84.9591C72.3137 85.1496 72.9375 85.3944 73.5231 85.7334C73.8667 85.9321 74.1482 86.1938 74.3387 86.5512C74.6068 87.0535 74.6608 87.5626 74.4368 88.1041C74.1856 88.7119 73.8028 89.2189 73.34 89.6627C72.7487 90.2296 72.1416 90.7796 71.5338 91.3285C69.1126 93.5154 66.9769 95.9626 65.0483 98.6127C63.5649 100.651 62.1474 102.736 60.6696 104.777C60.5701 104.915 60.4777 105.06 60.3641 105.183C60.2121 105.35 60.0311 105.367 59.8801 105.255C59.733 105.145 59.6977 104.956 59.7908 104.759C59.8134 104.713 59.8445 104.669 59.8748 104.627C61.8151 101.905 63.6919 99.1355 65.7291 96.4861C67.2856 94.4622 69.0326 92.6246 70.9037 90.9066C71.4015 90.4494 71.9021 89.9954 72.4033 89.5413C72.7607 89.2178 73.1033 88.8802 73.388 88.4869C73.4567 88.392 73.5199 88.2921 73.5823 88.1927C74.1552 87.2832 73.6836 86.6517 73.0697 86.3247C72.1356 85.8269 71.1341 85.5472 70.1054 85.3514C68.2483 84.9983 66.3694 84.9781 65.0123 84.9616Z" fill="#D7E4FF"/>
<path d="M76.8011 88.1555C76.7587 87.2139 76.4645 86.4332 75.8496 85.793C75.2905 85.2102 74.6138 84.8073 73.8892 84.487C73.1674 84.1677 72.4132 83.9472 71.6519 83.7486C69.8577 83.2801 68.0624 82.8162 66.2375 82.4853C64.5773 82.184 62.9048 81.977 61.2287 81.7963C59.3477 81.5928 57.472 81.3525 55.6397 80.8467C54.1499 80.435 52.7543 79.8102 51.4741 78.9237C50.8959 78.5233 50.3769 78.0527 49.9056 77.527C48.908 76.4137 48.3488 75.0978 48.1629 73.6048C47.9696 72.0533 48.0299 70.5064 48.207 68.9598C48.2896 68.2416 48.3859 67.5251 48.4793 66.8079C48.4963 66.678 48.5189 66.5468 48.558 66.4226C48.6113 66.2551 48.7355 66.1662 48.9094 66.1711C49.0752 66.1757 49.2121 66.3143 49.2382 66.5027C49.2569 66.6347 49.2251 66.7638 49.2061 66.8939C48.9658 68.5608 48.7506 70.2298 48.7764 71.9203C48.7891 72.7381 48.8572 73.5495 49.0417 74.3467C49.4297 76.0256 50.4415 77.2526 51.7782 78.2273C53.0171 79.1311 54.3979 79.7308 55.863 80.1358C57.2829 80.5277 58.7325 80.7528 60.1898 80.9239C62.3365 81.1758 64.4898 81.3804 66.6142 81.7963C68.8632 82.2366 71.0913 82.7707 73.2821 83.4579C74.0607 83.702 74.7923 84.0559 75.4725 84.5173C76.5513 85.2497 77.2755 86.2198 77.4837 87.5593C77.5867 88.2229 77.4572 88.8395 77.2198 89.4467C76.7587 90.6257 76.0369 91.6279 75.1931 92.5441C74.593 93.1964 73.9718 93.8278 73.3198 94.4244C70.631 96.8839 68.1516 99.5576 65.6596 102.219C64.5194 103.437 63.4706 104.736 62.4042 106.019C62.2962 106.15 62.1975 106.289 62.0807 106.411C61.9082 106.59 61.7191 106.607 61.5649 106.476C61.4185 106.351 61.4034 106.147 61.5332 105.942C61.5889 105.854 61.6584 105.775 61.7233 105.693C63.3563 103.639 65.1213 101.707 66.9123 99.7972C69.0332 97.5355 71.2346 95.3603 73.4835 93.233C74.4283 92.3387 75.3346 91.4021 76.0059 90.2612C76.3456 89.683 76.6331 89.0833 76.7598 88.4141C76.7792 88.3114 76.7929 88.2074 76.8011 88.1555Z" fill="#D7E4FF"/>
<path d="M79.8447 88.18C79.8416 86.826 79.3491 85.7772 78.4357 84.9298C77.7771 84.3188 77.0596 83.7851 76.3124 83.2919C74.1911 81.8917 71.9051 80.8633 69.5122 80.052C66.7644 79.1206 63.9641 78.3752 61.1916 77.5328C60.0818 77.1959 58.9772 76.8452 57.9196 76.3559C56.9823 75.923 56.1434 75.354 55.4449 74.5737C54.5294 73.5506 54.0383 72.3572 54.0161 70.9658C54.0052 70.2659 54.1008 69.5755 54.1742 68.8827C54.177 68.8566 54.1795 68.8297 54.1858 68.8043C54.2377 68.5888 54.3784 68.4618 54.5555 68.4703C54.751 68.4791 54.8995 68.6343 54.8885 68.876C54.8698 69.2831 54.8346 69.6898 54.7845 70.0937C54.5329 72.1219 55.3009 73.6875 56.8673 74.8831C57.7231 75.5357 58.7077 75.9312 59.711 76.2709C61.6153 76.9161 63.5545 77.4425 65.4828 78.0076C68.0292 78.7537 70.5748 79.5147 73.0012 80.6168C75.09 81.5654 77.0578 82.7302 78.7991 84.2624C79.5364 84.9104 80.0832 85.6929 80.37 86.6531C80.7849 88.041 80.5775 89.3593 79.9379 90.624C79.2291 92.0245 78.3098 93.2719 77.2487 94.4114C76.1822 95.5562 75.0131 96.5895 73.8761 97.6573C72.0946 99.3313 70.3621 101.057 68.6515 102.806C67.1133 104.378 65.5512 105.925 63.9987 107.481C63.9256 107.554 63.8484 107.632 63.7581 107.676C63.6089 107.749 63.454 107.738 63.3354 107.6C63.2194 107.466 63.2092 107.313 63.3069 107.165C63.3637 107.079 63.4363 107.002 63.5097 106.929C66.5323 103.936 69.4639 100.849 72.5373 97.9096C73.6274 96.8671 74.7358 95.8448 75.8284 94.8048C77.0021 93.6886 78.0336 92.45 78.8728 91.0484C79.2037 90.4963 79.4846 89.9227 79.6726 89.3028C79.7911 88.9099 79.873 88.5133 79.8447 88.18Z" fill="#D7E4FF"/>
<path d="M82.2819 88.1989C82.2642 86.9169 81.8934 85.7482 81.0679 84.7272C80.3038 83.7825 79.3785 83.0367 78.4084 82.3393C77.2597 81.5134 76.0514 80.786 74.8195 80.0991C72.4252 78.7639 70.0235 77.4438 67.5192 76.3308C66.3278 75.8012 65.1118 75.3338 63.9057 74.8417C63.1176 74.5199 62.328 74.2017 61.5389 73.8825C60.9628 73.6496 60.4237 73.3448 59.8875 73.0302C59.4822 72.7927 59.2677 72.4467 59.2338 71.9807C59.195 71.4391 59.2853 70.905 59.3555 70.3716C59.3845 70.1508 59.5492 70.0358 59.7291 70.0531C59.909 70.0711 60.0509 70.2146 60.0501 70.4334C60.0494 70.6955 60.0142 70.9572 59.9923 71.2194C59.9108 72.1969 59.9094 72.1987 60.7405 72.6721C61.1459 72.9028 61.571 73.0898 62.0014 73.2662C64.3286 74.2197 66.6855 75.0999 68.9627 76.1787C71.6615 77.4568 74.2727 78.906 76.848 80.423C77.9519 81.0731 79.0028 81.8115 80.0022 82.6225C80.6503 83.1492 81.2426 83.7327 81.7428 84.4069C83.0675 86.192 83.343 88.1534 82.6424 90.2605C82.3245 91.2173 81.7858 92.0516 81.1833 92.8464C79.9807 94.4328 78.5907 95.8394 77.1747 97.2205C75.1261 99.2186 73.0045 101.137 70.94 103.117C69.2601 104.728 67.5738 106.333 65.9987 108.054C65.8847 108.179 65.781 108.315 65.6597 108.432C65.4967 108.589 65.3189 108.598 65.1732 108.477C65.0282 108.356 64.9947 108.168 65.1107 107.981C65.1929 107.849 65.2995 107.731 65.4039 107.615C66.5547 106.336 67.7975 105.151 69.0209 103.947C71.6544 101.355 74.4209 98.9096 77.0491 96.3124C78.2799 95.0961 79.4889 93.8575 80.5437 92.4721C81.1159 91.7207 81.6218 90.9333 81.9502 90.0355C82.164 89.4502 82.2759 88.847 82.2819 88.1989Z" fill="#D7E4FF"/>
<path d="M62.6148 67.6007C62.6205 67.7488 62.5715 67.8864 62.5164 68.0191C62.3404 68.442 62.1608 68.8636 61.9756 69.2827C61.85 69.5678 61.6257 69.6923 61.3216 69.6626C61.1032 69.6411 60.8912 69.5872 60.682 69.5205C57.1778 68.4061 53.7573 67.0789 50.4585 65.423C48.9705 64.6761 47.4401 64.0171 45.9239 63.3299C45.1008 62.9563 44.2852 62.5679 43.4936 62.1287C43.0113 61.8606 42.8935 61.5491 43.0861 61.0161C43.3094 60.3962 43.5892 59.8053 44.0009 59.2899C44.3494 58.8539 44.5724 58.8034 45.0769 59.0186C47.1078 59.884 49.0707 60.8986 51.055 61.867C51.8209 62.2409 52.5949 62.5962 53.376 62.9369C54.2032 63.2982 55.0312 63.6605 55.8274 64.0919C57.0254 64.7414 58.2937 65.2074 59.588 65.6092C60.2904 65.8272 60.9702 66.1074 61.6197 66.4612C61.8698 66.5974 62.115 66.7413 62.3245 66.9399C62.5115 67.1174 62.6311 67.3283 62.6148 67.6007Z" fill="#729BED"/>
<path d="M45.6123 62.8475C45.4081 62.844 45.2571 62.6718 45.274 62.4534C45.2842 62.319 45.3474 62.2037 45.4148 62.0904C45.6903 61.6307 45.964 61.1697 46.2388 60.7096C46.266 60.6648 46.2914 60.619 46.3239 60.5777C46.4724 60.389 46.665 60.341 46.8283 60.4489C46.9931 60.5576 47.0478 60.7573 46.9268 60.9714C46.6043 61.5401 46.2657 62.0989 45.9305 62.6602C45.8596 62.7794 45.7555 62.851 45.6123 62.8475Z" fill="#D7E4FF"/>
<path d="M59.8983 68.6587C59.8955 68.5631 59.9347 68.4657 59.9851 68.3736C60.2561 67.8815 60.5203 67.3848 60.8036 66.9004C60.9835 66.5935 61.2004 66.5134 61.3994 66.6387C61.5966 66.7636 61.6023 66.9812 61.4185 67.2956C61.1348 67.7806 60.854 68.2671 60.6071 68.773C60.5841 68.8199 60.5626 68.8686 60.5319 68.9102C60.4289 69.0503 60.2931 69.112 60.1269 69.046C59.9643 68.9818 59.8945 68.8481 59.8983 68.6587Z" fill="#D7E4FF"/>
<path d="M54.9536 66.5654C54.954 66.4698 54.9917 66.3866 55.033 66.3044C55.2771 65.8115 55.5212 65.3191 55.766 64.8266C55.7833 64.7917 55.802 64.7567 55.8239 64.7243C55.9647 64.5161 56.1396 64.4498 56.3139 64.5366C56.5044 64.6315 56.5693 64.8322 56.4526 65.0778C56.1887 65.6334 55.9153 66.1851 55.6327 66.7312C55.529 66.9323 55.3498 66.9969 55.1804 66.938C55.034 66.8864 54.9458 66.7422 54.9536 66.5654Z" fill="#D7E4FF"/>
<path d="M58.1328 65.5846C58.1187 65.628 58.1017 65.7053 58.0689 65.7748C57.8481 66.2464 57.6244 66.7167 57.4008 67.1869C57.3898 67.2106 57.3771 67.2335 57.3634 67.2554C57.2311 67.4688 57.06 67.5418 56.885 67.46C56.6927 67.3707 56.6165 67.1686 56.7238 66.9294C56.9524 66.4179 57.1926 65.912 57.4417 65.4111C57.5482 65.1966 57.7084 65.1239 57.8738 65.1673C58.0428 65.2114 58.1434 65.3599 58.1328 65.5846Z" fill="#D7E4FF"/>
<path d="M44.1033 61.6482C43.8712 61.6465 43.674 61.4288 43.7643 61.2175C44.0328 60.5899 44.411 60.0251 44.8586 59.5157C44.9694 59.3898 45.1458 59.4081 45.2834 59.5171C45.4083 59.6162 45.4404 59.7559 45.3931 59.9069C45.3705 59.9803 45.3292 60.0502 45.2869 60.1151C45.0184 60.5321 44.7457 60.9469 44.4773 61.3636C44.382 61.5107 44.279 61.6408 44.1033 61.6482Z" fill="#D7E4FF"/>
<path d="M47.6494 63.2258C47.4504 63.2332 47.2892 63.061 47.2948 62.8479C47.2983 62.7245 47.3573 62.6229 47.4172 62.5223C47.6497 62.1307 47.8818 61.7395 48.1171 61.3504C48.1641 61.2731 48.2152 61.1945 48.2805 61.1345C48.393 61.0294 48.5274 60.9983 48.6696 61.0784C48.8213 61.1641 48.888 61.2999 48.8516 61.4721C48.8336 61.5592 48.7917 61.645 48.7461 61.7222C48.5094 62.1261 48.2681 62.5273 48.0286 62.9291C47.9397 63.0783 47.8377 63.2099 47.6494 63.2258Z" fill="#D7E4FF"/>
<path d="M54.9357 64.2338C54.9107 64.2994 54.8902 64.3922 54.8426 64.4677C54.5776 64.8878 54.3085 65.3048 54.0354 65.7197C53.9447 65.858 53.8202 65.9479 53.6449 65.9204C53.4011 65.8823 53.2773 65.6216 53.4061 65.3736C53.5204 65.1542 53.6668 64.9517 53.8015 64.7429C53.9641 64.4906 54.1222 64.2341 54.2965 63.99C54.3967 63.8493 54.5487 63.8122 54.712 63.8715C54.8655 63.9272 54.9202 64.0556 54.9357 64.2338Z" fill="#D7E4FF"/>
<path d="M50.9294 62.4055C50.922 62.4295 50.9143 62.4842 50.8889 62.5272C50.6225 62.9735 50.3537 63.4183 50.0838 63.8625C50.0641 63.8953 50.0337 63.9224 50.0041 63.9464C49.869 64.0582 49.7205 64.0713 49.579 63.9722C49.4379 63.8737 49.391 63.728 49.4464 63.5587C49.4668 63.4973 49.4954 63.4374 49.5282 63.382C49.7561 63.0031 49.9861 62.626 50.2158 62.2485C50.2775 62.1465 50.3523 62.0583 50.4666 62.016C50.6987 61.9303 50.9435 62.1215 50.9294 62.4055Z" fill="#D7E4FF"/>
<path d="M51.6374 64.7443C51.4307 64.7394 51.2815 64.5648 51.3037 64.3492C51.3132 64.2557 51.3534 64.1735 51.4039 64.0959C51.6452 63.7234 51.8847 63.3498 52.1292 62.979C52.1715 62.9145 52.2248 62.8513 52.2873 62.809C52.4284 62.713 52.5804 62.7077 52.7162 62.8213C52.8365 62.9222 52.8725 63.0581 52.8207 63.2112C52.8041 63.2602 52.7826 63.3096 52.755 63.353C52.5003 63.7481 52.2453 64.1428 51.987 64.5355C51.9052 64.6611 51.7962 64.7486 51.6374 64.7443Z" fill="#D7E4FF"/>
<path d="M59.6724 66.3095C59.6501 66.3677 59.624 66.4562 59.5831 66.5367C59.3986 66.8979 59.2109 67.2577 59.0211 67.6162C58.9848 67.6846 58.9418 67.7534 58.8881 67.8081C58.764 67.9354 58.6098 67.9517 58.4627 67.8666C58.3138 67.7806 58.2468 67.6296 58.3043 67.462C58.3636 67.2891 58.45 67.1255 58.5343 66.9635C58.692 66.6623 58.8476 66.3589 59.0222 66.0678C59.1203 65.9052 59.2861 65.859 59.4632 65.9331C59.6089 65.9934 59.6734 66.1183 59.6724 66.3095Z" fill="#D7E4FF"/>
<path d="M33.2882 61.4711C34.0727 61.4627 34.8217 61.6013 35.493 62.0479C36.508 62.7232 36.95 63.7342 37.0424 64.933C37.1232 65.9846 36.871 66.9787 36.4981 67.9471C35.6451 70.1604 34.2135 71.9169 32.4076 73.352C29.5561 75.6172 26.3406 77.0138 22.7687 77.5127C22.2878 77.5797 21.806 77.6467 21.3166 77.6368C20.972 77.6305 20.6517 77.5412 20.3363 77.4107C20.125 77.3232 20.0216 77.1638 20.0075 76.9309C19.9874 76.5912 20.0615 76.2652 20.1391 75.941C20.4516 74.635 20.9501 73.4032 21.5343 72.2051C21.6737 71.9187 21.8218 71.6357 21.9425 71.3415C23.0015 68.7592 24.6941 66.6598 26.6517 64.7668C27.7411 63.7127 28.9402 62.8128 30.3114 62.1799C31.2583 61.7431 32.2436 61.4733 33.2882 61.4711Z" fill="#96E2C3"/>
<path d="M13.5026 63.3129C13.5086 60.691 14.0547 58.4865 14.8361 56.3346C15.8398 53.5702 17.3094 51.1092 19.3517 49.0286C20.2502 48.1135 21.2362 47.3144 22.3679 46.726C23.2534 46.2656 24.1886 46.0878 25.1538 46.3937C26.6139 46.8565 27.4387 47.929 27.7143 49.4452C28.0014 51.0263 27.9323 52.6107 27.5915 54.177C26.5847 58.8058 24.5131 62.8342 21.2115 66.1633C20.429 66.9521 19.6371 67.7297 18.7586 68.4077C17.9028 69.0688 16.9401 69.4897 15.9184 69.7835C15.711 69.8432 15.5462 69.7779 15.4037 69.6311C15.3469 69.5729 15.2982 69.5034 15.2566 69.4329C14.0921 67.4605 13.4328 65.3407 13.5026 63.3129Z" fill="#96E2C3"/>
<path d="M11.1961 66.8703C11.291 68.3407 10.8684 69.7635 10.3918 71.176C10.232 71.6498 10.0584 72.1179 9.81005 72.5518C9.72785 72.6961 9.64177 72.8383 9.51407 72.9462C9.37049 73.0676 9.18881 73.1649 9.03182 73.0535C8.76089 72.8615 8.44515 72.8651 8.15411 72.7695C7.31097 72.4915 6.53627 72.0812 5.82789 71.5312C4.36634 70.3953 3.25614 68.9704 2.43488 67.2831C1.37901 65.1131 0.617366 62.8487 0.277994 60.4431C0.0931387 59.1336 -0.0522062 57.8173 0.0179966 56.4888C0.0765577 55.3835 0.233897 54.2952 0.7232 53.2944C1.25307 52.2103 2.06905 51.486 3.26637 51.3241C4.05166 51.2179 4.76039 51.4857 5.40562 51.9295C5.99335 52.3341 6.50135 52.8368 6.93632 53.4097C8.06944 54.9023 8.91858 56.5593 9.55076 58.3359C10.3029 60.4484 10.7932 62.6289 11.08 64.8577C11.1633 65.5061 11.218 66.1595 11.1961 66.8703Z" fill="#96E2C3"/>
<path d="M12.3964 88.684C12.4281 87.8056 12.5844 86.9405 12.6659 86.0671C12.7636 85.0133 12.8924 83.9617 12.9562 82.9058C13.2967 77.2511 14.5758 71.8191 16.6103 66.5726C17.9011 63.2434 19.5045 60.0702 21.2818 56.9901C21.3432 56.8828 21.4099 56.7745 21.4938 56.6867C21.6575 56.5163 21.8649 56.4937 22.0487 56.6038C22.247 56.7223 22.3394 56.9484 22.2604 57.1781C22.2163 57.3079 22.1405 57.4268 22.0717 57.546C20.5205 60.2289 19.1418 63.0035 17.9237 65.8624C16.7366 68.6494 15.8772 71.5506 15.1625 74.4995C14.5681 76.9506 14.1941 79.437 14.0008 81.9561C13.8466 83.9691 13.6724 85.981 13.411 87.9834C13.3785 88.2314 13.3799 88.4839 13.3588 88.7337C13.3443 88.8995 13.3305 89.0681 13.2928 89.2294C13.2303 89.4954 13.025 89.6492 12.7961 89.6255C12.5601 89.6015 12.3907 89.4153 12.3777 89.1429C12.3703 88.9905 12.389 88.8371 12.3964 88.684Z" fill="#5FCE9E"/>
<path d="M9.64889 82.7229C9.57728 80.746 9.50073 78.769 9.38784 76.7931C9.22732 73.9878 8.51154 71.3335 7.40381 68.7822C6.78575 67.3591 6.23753 65.9028 5.51928 64.5274C5.41697 64.3316 5.3764 64.1351 5.50552 63.9361C5.65756 63.7022 5.95707 63.6602 6.18215 63.8377C6.28128 63.9156 6.34901 64.0211 6.40122 64.1347C7.69909 66.9372 9.00155 69.7393 9.76919 72.7615C10.0468 73.8545 10.1978 74.9738 10.2878 76.1002C10.4882 78.6145 10.5538 81.1361 10.6384 83.6567C10.6797 84.8968 10.7048 86.1364 10.7051 87.3768C10.7051 87.502 10.7083 87.6304 10.6829 87.7511C10.637 87.9652 10.4451 88.1268 10.2461 88.1218C10.0412 88.1166 9.88631 88.0167 9.80341 87.8149C9.7445 87.6696 9.74167 87.5168 9.74238 87.3627C9.74943 85.8154 9.71416 84.2692 9.64889 82.7229Z" fill="#5FCE9E"/>
<path d="M15.2007 89.0161C14.9671 89.0221 14.7869 88.8721 14.7392 88.634C14.7138 88.5077 14.728 88.3811 14.7608 88.2611C15.219 86.5875 15.5697 84.8829 16.1489 83.2443C16.9399 81.0073 18.1129 79.0085 19.5677 77.1687C20.6126 75.8472 21.7927 74.6644 22.9822 73.4896C23.9672 72.5167 24.9634 71.5567 25.9551 70.5915C26.2666 70.2885 26.5573 70.2525 26.763 70.4871C26.9648 70.7168 26.9302 70.9898 26.6275 71.2883C25.6605 72.2404 24.6809 73.1781 23.7167 74.1327C22.5674 75.2704 21.4138 76.4029 20.401 77.6785C19.1356 79.2723 18.0561 80.9773 17.3064 82.8954C16.7698 84.2684 16.3976 85.6915 16.0463 87.1227C15.9274 87.6085 15.8 88.0921 15.6653 88.5737C15.5796 88.8817 15.4317 89.0101 15.2007 89.0161Z" fill="#5FCE9E"/>
<path d="M22.1905 86.4853C22.2406 86.6635 22.1842 86.7936 22.1531 86.927C21.1816 91.0841 20.143 95.2236 19.1097 99.3645C19.0092 99.766 18.7964 99.9713 18.3978 100.045C16.8636 100.332 15.3145 100.417 13.7609 100.438C12.1942 100.459 10.6293 100.375 9.06576 100.275C8.3909 100.232 7.72944 100.091 7.06975 99.9406C6.85244 99.8909 6.76636 99.7752 6.71027 99.56C6.02588 96.9367 5.37924 94.3043 4.79116 91.6563C4.41721 89.9732 4.04432 88.2894 3.67038 86.6063C3.5776 86.1886 3.57689 86.1833 3.98224 86.1858C6.11619 86.2013 8.24979 86.2116 10.3834 86.2398C13.8801 86.286 17.3751 86.468 20.8739 86.4186C21.316 86.4119 21.7587 86.4624 22.1905 86.4853Z" fill="#FFDD92"/>
<path d="M21.9286 87.7039C15.8302 88.5163 9.99875 88.5332 3.91016 87.6478C4.00011 88.0714 4.10136 88.505 4.19132 88.9291C9.02438 89.7313 13.8109 89.9602 18.6894 89.5118C19.813 89.4085 20.6085 89.3661 21.6538 88.9414C21.7911 88.5413 21.8895 88.0697 21.9286 87.7039Z" fill="#777777"/>
<path d="M152.345 29.489H127.879V26.2025H152.345V29.489Z" fill="#FFDD92"/>
<path d="M146.706 17.0728C146.706 20.8645 143.632 23.9382 139.841 23.9382C136.049 23.9382 132.975 20.8645 132.975 17.0728C132.975 13.2812 136.049 10.2078 139.841 10.2078C143.632 10.2078 146.706 13.2812 146.706 17.0728Z" fill="#777777"/>
<path d="M145.524 17.1459C145.524 20.2468 143.01 22.7603 139.909 22.7603C136.808 22.7603 134.295 20.2468 134.295 17.1459C134.295 14.0449 136.808 11.5314 139.909 11.5314C143.01 11.5314 145.524 14.0449 145.524 17.1459Z" fill="white"/>
<path d="M140.122 15.0919C140.122 16.2868 139.813 17.2555 139.813 17.2555C139.813 17.2555 139.505 16.2868 139.505 15.0919C139.505 13.8967 139.813 12.928 139.813 12.928C139.813 12.928 140.122 13.8967 140.122 15.0919Z" fill="#37474F"/>
<path d="M141.375 17.9624C140.475 17.6981 139.813 17.2519 139.813 17.2519C139.813 17.2519 140.611 17.2342 141.511 17.4985C142.411 17.7623 143.072 18.2086 143.072 18.2086C143.072 18.2086 142.274 18.2262 141.375 17.9624Z" fill="#37474F"/>
<path d="M140.184 17.2468C140.184 17.4828 139.993 17.6744 139.757 17.6744C139.521 17.6744 139.329 17.4828 139.329 17.2468C139.329 17.0108 139.521 16.8196 139.757 16.8196C139.993 16.8196 140.184 17.0108 140.184 17.2468Z" fill="#37474F"/>
<path d="M136.48 9.9463L131.985 14.4417C130.769 13.1982 130.777 11.2061 132.009 9.97347C133.242 8.74121 135.237 8.73028 136.48 9.9463Z" fill="#CCCCCC"/>
<path d="M147.77 14.4418L143.275 9.94636C144.518 8.73034 146.51 8.73845 147.742 9.97071C148.975 11.2033 148.986 13.1986 147.77 14.4418Z" fill="#CCCCCC"/>
<path d="M140.763 9.09398C140.763 9.60798 140.346 10.0253 139.831 10.0253C139.317 10.0253 138.9 9.60798 138.9 9.09398C138.9 8.57963 139.317 8.16265 139.831 8.16265C140.346 8.16265 140.763 8.57963 140.763 9.09398Z" fill="#777777"/>
<path d="M135.434 24.4822L135.353 24.4011C135.119 24.1675 135.119 23.7858 135.353 23.5523L136.57 22.3352C136.804 22.102 137.185 22.102 137.419 22.3352L137.5 22.4163C137.733 22.6499 137.733 23.0316 137.5 23.2648L136.283 24.4822C136.049 24.7154 135.667 24.7154 135.434 24.4822Z" fill="#777777"/>
<path d="M144.347 24.4191L144.266 24.5003C144.032 24.7338 143.651 24.7338 143.417 24.5003L142.2 23.2828C141.967 23.0497 141.967 22.668 142.2 22.4344L142.281 22.3536C142.515 22.1201 142.896 22.1201 143.13 22.3536L144.347 23.5707C144.58 23.8043 144.58 24.186 144.347 24.4191Z" fill="#777777"/>
</svg>
